Coordinates
version=1
nRows=16
nColumns=40
inDegrees=yes

Units are S.I. units (second, meters, Newtons, ...)
Angles are in degrees.

endheader
time	pelvis_tilt	pelvis_list	pelvis_rotation	pelvis_tx	pelvis_ty	pelvis_tz	hip_flexion_r	hip_adduction_r	hip_rotation_r	knee_angle_r	knee_angle_r_beta	ankle_angle_r	subtalar_angle_r	mtp_angle_r	hip_flexion_l	hip_adduction_l	hip_rotation_l	knee_angle_l	knee_angle_l_beta	ankle_angle_l	subtalar_angle_l	mtp_angle_l	lumbar_extension	lumbar_bending	lumbar_rotation	arm_flex_r	arm_add_r	arm_rot_r	elbow_flex_r	pro_sup_r	wrist_flex_r	wrist_dev_r	arm_flex_l	arm_add_l	arm_rot_l	elbow_flex_l	pro_sup_l	wrist_flex_l	wrist_dev_l
     29.13114286	     -2.87079818	     -2.01261666	     -1.30200501	      1.09265103	      0.93466362	      0.39677016	     34.08960820	    -11.04211633	     -9.91720256	     52.70945891	     52.70945891	      5.04585009	    -14.66112005	      2.33449333	      9.53727117	     -2.17187482	    -15.95151177	     17.31988146	     17.31988146	     14.16234463	     -1.69144942	     -6.71791556	     -9.49738903	      1.90558838	      0.91434742	     -2.28511587	    -13.24838726	     -7.75024353	     55.16085983	     45.88538734	      0.00000000	      0.00000000	     28.11560332	    -15.90115926	      2.12352801	     31.89156766	     46.34740499	      0.00000000	      0.00000000
     29.14228571	     -2.96112378	     -1.93022207	     -1.30396367	      1.09162483	      0.93441618	      0.39685665	     34.30520644	    -10.90943190	     -9.95064121	     49.77348538	     49.77348538	      4.62706618	    -14.18830508	      2.02693109	      8.72687140	     -1.97933706	    -16.07021873	     16.64110739	     16.64110739	     14.31122812	     -1.35325048	     -7.29311687	     -9.32746200	      1.84383886	      0.48901319	     -2.71769680	    -12.67748769	     -9.14406762	     49.20764664	     46.13185521	      0.00000000	      0.00000000	     29.31037346	    -16.34408896	      1.28058878	     32.65391153	     46.47415058	      0.00000000	      0.00000000
     29.15342857	     -2.90011434	     -1.91493213	     -1.33277496	      1.09074000	      0.93432641	      0.39705244	     34.22249620	    -10.65139850	    -10.01893624	     46.72929874	     46.72929874	      4.42834633	    -13.45478445	      2.29716750	      7.72802105	     -1.85071682	    -16.14047785	     15.95747757	     15.95747757	     14.63181483	     -1.03388939	     -7.43056662	     -9.46501945	      1.90052883	      0.64217537	     -4.67545055	    -12.87889531	     -9.29920457	     47.02045145	     46.20130793	      0.00000000	      0.00000000	     30.63427675	    -16.44103978	      0.94984244	     33.78790117	     46.53848901	      0.00000000	      0.00000000
     29.16457143	     -2.88032881	     -1.83487078	     -1.39284353	      1.09001611	      0.93404321	      0.39727854	     34.10328665	    -10.44046065	    -10.10771697	     43.66444515	     43.66444515	      4.28633626	    -12.47302393	      2.42889492	      6.71048769	     -1.64116234	    -16.27963514	     15.17547587	     15.17547587	     14.89140555	     -0.62929271	     -7.66741516	     -9.49378855	      1.91826479	      0.97137986	     -6.41045943	    -12.98889643	     -9.58727232	     44.02726236	     46.30882826	      0.00000000	      0.00000000	     31.87466439	    -16.40425976	      0.51696836	     35.17949015	     46.61362570	      0.00000000	      0.00000000
     29.17571429	     -2.94169672	     -1.67503007	     -1.45786426	      1.08936419	      0.93349593	      0.39767060	     33.99485486	    -10.25592539	    -10.17832526	     40.57508089	     40.57508089	      3.86315528	    -11.51577016	      1.63747077	      5.74843935	     -1.32396458	    -16.31090268	     14.28134508	     14.28134508	     14.74964804	     -0.56021309	     -8.72347469	     -9.36819661	      1.75435574	      0.28273310	     -5.61305351	    -12.36466303	    -11.65970443	     36.17981827	     46.68023647	      0.00000000	      0.00000000	     31.97625238	    -17.04719597	     -1.55803394	     37.97879112	     46.85520232	      0.00000000	      0.00000000
     29.18685714	     -2.93737573	     -1.55092585	     -1.54196062	      1.08895509	      0.93291617	      0.39812347	     33.71824258	    -10.03128570	    -10.37513986	     37.54693052	     37.54693052	      3.81772088	    -10.13569344	      1.83957751	      4.70578537	     -1.06157017	    -16.42290560	     13.44707136	     13.44707136	     14.97423782	     -0.22573049	     -8.95502092	     -9.38536385	      1.71722739	      0.72125005	     -7.45414523	    -12.47717754	    -12.13656147	     33.87083155	     46.77015106	      0.00000000	      0.00000000	     32.94127073	    -16.88878768	     -2.24238359	     39.83114656	     46.94736436	      0.00000000	      0.00000000
     29.19800000	     -2.90670186	     -1.47655163	     -1.58479950	      1.08870781	      0.93225504	      0.39859459	     33.29036230	     -9.74456460	    -10.69909341	     34.55394731	     34.55394731	      3.79469882	     -8.75149849	      2.16408032	      3.64003110	     -0.83524087	    -16.30932792	     12.61526628	     12.61526628	     14.97794219	     -0.20051064	     -9.77583339	     -9.38664038	      1.75251484	      0.27458050	     -7.66906505	    -12.39124775	    -13.77682869	     29.15390378	     47.02395165	      0.00000000	      0.00000000	     32.73201909	    -17.22052210	     -4.00366031	     43.11330948	     47.12486029	      0.00000000	      0.00000000
     29.20914286	     -2.95080898	     -1.47683641	     -1.66007015	      1.08861851	      0.93129237	      0.39934347	     32.86398307	     -9.30605622	    -11.03712695	     31.67047693	     31.67047693	      3.80146019	     -7.43857168	      2.67144845	      2.75734558	     -0.76773103	    -16.40930411	     12.04892178	     12.04892178	     15.33372046	      0.03105051	     -9.90800327	     -9.26981363	      1.89147283	      0.55625679	     -9.52690699	    -12.52628533	    -13.93283098	     27.83496787	     47.07035314	      0.00000000	      0.00000000	     33.61827921	    -17.23036591	     -4.25218896	     44.36732518	     47.16650779	      0.00000000	      0.00000000
     29.22028571	     -2.82454451	     -1.24834398	     -1.78454277	      1.08886845	      0.93029898	      0.40012030	     32.33828877	     -9.15934862	    -11.48664526	     29.23584274	     29.23584274	      4.11430537	     -5.73123102	      3.40805832	      1.51715071	     -0.39681939	    -16.56841578	     11.17376065	     11.17376065	     15.51794945	      0.44234377	    -10.29611449	     -9.38324210	      1.69231377	      1.12774776	    -11.03421822	    -12.55661454	    -14.46441181	     25.21642614	     47.20247703	      0.00000000	      0.00000000	     34.05376192	    -16.97045128	     -4.90909249	     47.40561250	     47.25120458	      0.00000000	      0.00000000
     29.23142857	     -2.78137379	     -1.21064497	     -1.82649594	      1.08922910	      0.92912905	      0.40104555	     31.78346766	     -8.76228045	    -11.96673811	     26.96687328	     26.96687328	      4.60116562	     -4.39890692	      5.17199155	      0.49799384	     -0.27144640	    -16.43191912	     10.54425319	     10.54425319	     15.58902388	      0.34386327	    -11.00448447	     -9.35954151	      1.75945814	      0.42919742	    -11.26811650	    -12.64911188	    -15.93962125	     21.81387940	     47.46993667	      0.00000000	      0.00000000	     33.10106038	    -17.72066927	     -6.26489809	     51.81398666	     47.37939990	      0.00000000	      0.00000000
     29.24257143	     -2.68925479	     -1.14445216	     -1.88541048	      1.08981376	      0.92778252	      0.40213919	     31.14974872	     -8.37064635	    -12.47465672	     24.96065760	     24.96065760	      4.70952588	     -3.42335855	      5.77973298	     -0.52056145	     -0.16457961	    -16.48124265	     10.09243708	     10.09243708	     16.02378636	      0.57895247	    -11.15275757	     -9.34026767	      1.79016214	      0.96186941	    -13.03615825	    -12.71497197	    -16.20694744	     20.61216950	     47.53341671	      0.00000000	      0.00000000	     33.74597033	    -17.49006795	     -6.50025936	     53.54357111	     47.42105770	      0.00000000	      0.00000000
     29.25371429	     -2.62393492	     -1.08227967	     -1.92000861	      1.09050358	      0.92628220	      0.40334192	     30.53692730	     -7.97488530	    -12.94275264	     23.28328840	     23.28328840	      4.75135868	     -2.59826010	      6.40619433	     -1.47747335	     -0.08814063	    -16.49433503	      9.71140454	      9.71140454	     16.43931176	      0.82095753	    -11.28171567	     -9.32396534	      1.83385103	      1.33373832	    -14.71005030	    -12.73229369	    -16.48388274	     19.53086967	     47.59732761	      0.00000000	      0.00000000	     34.08437317	    -17.37161711	     -6.75448602	     55.75505150	     47.46926882	      0.00000000	      0.00000000
     29.26485714	     -2.66598052	     -0.97100521	     -1.93596069	      1.09129222	      0.92452796	      0.40469268	     30.06164487	     -7.62134384	    -13.28274955	     21.97695109	     21.97695109	      4.66352495	     -2.12626004	      6.84683115	     -2.23381950	     -0.00204497	    -16.47563593	      9.50347891	      9.50347891	     16.89270896	      0.95933006	    -11.38575692	     -9.09320852	      1.80315579	      1.51365907	    -16.22286605	    -12.66690489	    -16.65538554	     18.75612606	     47.63754758	      0.00000000	      0.00000000	     34.41532554	    -17.44407242	     -6.96363724	     57.50422297	     47.51090292	      0.00000000	      0.00000000
     29.27600000	     -2.52495958	     -0.93739980	     -1.96116880	      1.09238593	      0.92288316	      0.40618356	     29.46690974	     -7.25331241	    -13.64617135	     21.21979149	     21.21979149	      4.67447976	     -1.73942567	      7.09595671	     -3.24534184	     -0.00233395	    -16.52950513	      9.24933188	      9.24933188	     17.44186141	      1.29414210	    -11.26155230	     -9.16052045	      1.83532884	      1.91709461	    -17.74996456	    -12.61084752	    -17.08218665	     18.01565542	     47.71149646	      0.00000000	      0.00000000	     34.00542361	    -17.34599346	     -7.29586000	     61.58541593	     47.58633067	      0.00000000	      0.00000000
     29.28714286	     -2.57729443	     -0.84858438	     -1.91323099	      1.09343019	      0.92100273	      0.40769211	     29.05552178	     -6.94405124	    -13.76425353	     20.66043355	     20.66043355	      4.23188172	     -1.83244366	      6.60017955	     -3.83574281	     -0.04031287	    -16.62090356	      9.42444618	      9.42444618	     18.28552534	      1.75784234	    -10.61856043	     -8.99564058	      1.81809791	      0.99192540	    -18.49634592	    -12.91352955	    -18.01253239	     17.83146219	     47.84080736	      0.00000000	      0.00000000	     32.35334563	    -18.43001973	     -8.15712823	     66.62326131	     47.70460890	      0.00000000	      0.00000000
     29.29828571	     -2.59237097	     -0.98343179	     -1.85934610	      1.09454580	      0.91921910	      0.40963618	     28.64802635	     -6.44203406	    -13.87937708	     20.52646198	     20.52646198	      3.95664940	     -2.06381149	      6.36984284	     -4.50774437	     -0.32550172	    -16.50729072	      9.49813767	      9.49813767	     18.82132168	      1.77701469	    -10.47192957	     -8.83568393	      2.00271525	      1.45766084	    -19.85569548	    -12.58744596	    -18.13884015	     17.23373464	     47.87015146	      0.00000000	      0.00000000	     32.68271728	    -18.20258292	     -8.36851065	     68.34489175	     47.74894255	      0.00000000	      0.00000000
